<svg width="24" height="24" viewBox="0 0 24 24" fill="none" xmlns="http://www.w3.org/2000/svg">
<g clip-path="url(#clip0_30_822)">
<path d="M9.328 10.0678C8.99466 10.0967 8.68427 10.2495 8.45812 10.4961C8.23198 10.7427 8.10652 11.0652 8.10652 11.3998C8.10652 11.7344 8.23198 12.0568 8.45812 12.3034C8.68427 12.55 8.99466 12.7029 9.328 12.7318C9.49588 12.7248 9.66074 12.6849 9.81315 12.6141C9.96556 12.5434 10.1025 12.4433 10.2162 12.3196C10.3299 12.1959 10.4181 12.051 10.4757 11.8931C10.5333 11.7353 10.5592 11.5676 10.552 11.3998C10.5602 11.2317 10.5349 11.0637 10.4776 10.9054C10.4204 10.7472 10.3322 10.6019 10.2184 10.478C10.1045 10.3541 9.96717 10.254 9.81433 10.1836C9.66148 10.1132 9.49618 10.0738 9.328 10.0678ZM13.708 10.0678C13.4397 10.045 13.1708 10.1038 12.9365 10.2364C12.7021 10.3691 12.5133 10.5693 12.3947 10.8111C12.2761 11.0528 12.2332 11.3247 12.2717 11.5912C12.3103 11.8577 12.4283 12.1064 12.6105 12.3046C12.7927 12.5029 13.0305 12.6415 13.2928 12.7024C13.5551 12.7633 13.8297 12.7435 14.0806 12.6457C14.3314 12.5479 14.5469 12.3767 14.6989 12.1543C14.8508 11.932 14.932 11.669 14.932 11.3998C14.9392 11.2319 14.9133 11.0643 14.8557 10.9064C14.7981 10.7486 14.7099 10.6037 14.5962 10.48C14.4825 10.3562 14.3456 10.2561 14.1931 10.1854C14.0407 10.1147 13.8759 10.0747 13.708 10.0678Z" fill="white"/>
<path d="M19.54 0H3.46C3.13616 0.000786973 2.81565 0.0653515 2.51676 0.190007C2.21787 0.314663 1.94646 0.496969 1.71803 0.726515C1.4896 0.956062 1.30861 1.22835 1.18541 1.52784C1.06221 1.82734 0.999211 2.14816 1 2.472V18.7C0.999211 19.0238 1.06221 19.3447 1.18541 19.6442C1.30861 19.9436 1.4896 20.2159 1.71803 20.4455C1.94646 20.675 2.21787 20.8573 2.51676 20.982C2.81565 21.1066 3.13616 21.1712 3.46 21.172H17.068L16.432 18.952L17.968 20.38L19.42 21.72L22 24V2.472C22.0008 2.14816 21.9378 1.82734 21.8146 1.52784C21.6914 1.22835 21.5104 0.956062 21.282 0.726515C21.0535 0.496969 20.7821 0.314663 20.4832 0.190007C20.1844 0.0653515 19.8638 0.000786973 19.54 0V0ZM14.908 15.672C14.908 15.672 14.476 15.156 14.116 14.7C14.9858 14.4952 15.7552 13.9893 16.288 13.272C15.8562 13.5594 15.3933 13.7969 14.908 13.98C14.3497 14.2183 13.7659 14.3914 13.168 14.496C12.1403 14.6852 11.0862 14.6812 10.06 14.484C9.45886 14.3659 8.86975 14.1932 8.3 13.968C7.81882 13.7842 7.35991 13.5467 6.932 13.26C7.44553 13.9624 8.18834 14.4632 9.032 14.676C8.672 15.132 8.232 15.676 8.232 15.676C7.51918 15.6952 6.81257 15.5388 6.17436 15.2208C5.53615 14.9027 4.98589 14.4327 4.572 13.852C4.61036 11.4179 5.20123 9.02433 6.3 6.852C7.26642 6.09298 8.44465 5.65272 9.672 5.592L9.792 5.736C8.63451 6.02081 7.55415 6.55757 6.628 7.308C6.628 7.308 6.892 7.164 7.336 6.96C8.19834 6.56489 9.11766 6.3084 10.06 6.2C10.1259 6.18632 10.1928 6.17829 10.26 6.176C11.0641 6.07122 11.8779 6.06317 12.684 6.152C13.9533 6.2975 15.1817 6.69023 16.3 7.308C15.4231 6.5942 14.4047 6.07475 13.312 5.784L13.48 5.592C14.7073 5.65272 15.8856 6.09298 16.852 6.852C17.9508 9.02433 18.5416 11.4179 18.58 13.852C18.1624 14.4314 17.6096 14.9001 16.9696 15.2173C16.3297 15.5344 15.622 15.6905 14.908 15.672Z" fill="white"/>
</g>
<defs>
<clipPath id="clip0_30_822">
<rect width="24" height="24" fill="white"/>
</clipPath>
</defs>
</svg>
